<svg width="17" height="16" viewBox="0 0 17 16" fill="none" xmlns="http://www.w3.org/2000/svg">
<path d="M8.49995 0.666748C8.93769 0.666748 9.37115 0.752967 9.77557 0.920483C10.18 1.088 10.5474 1.33353 10.857 1.64306C11.1665 1.95259 11.412 2.32005 11.5796 2.72447C11.7471 3.12889 11.8333 3.56234 11.8333 4.00008V6.66675C11.8333 7.5508 11.4821 8.39865 10.857 9.02377C10.2319 9.64889 9.38401 10.0001 8.49995 10.0001C7.6159 10.0001 6.76805 9.64889 6.14293 9.02377C5.51781 8.39865 5.16662 7.5508 5.16662 6.66675V4.00008C5.16662 3.11603 5.51781 2.26818 6.14293 1.64306C6.76805 1.01794 7.6159 0.666748 8.49995 0.666748ZM2.53662 7.33341H3.87995C4.04148 8.44327 4.5972 9.45787 5.44544 10.1916C6.29368 10.9253 7.37774 11.3291 8.49929 11.3291C9.62083 11.3291 10.7049 10.9253 11.5531 10.1916C12.4014 9.45787 12.9571 8.44327 13.1186 7.33341H14.4626C14.311 8.68589 13.7044 9.94671 12.7421 10.9091C11.7798 11.8715 10.5191 12.4783 9.16662 12.6301V15.3334H7.83329V12.6301C6.48071 12.4785 5.21981 11.8717 4.2574 10.9093C3.295 9.94689 2.68823 8.68599 2.53662 7.33341Z" fill="#1DAC92"/>
</svg>
