<svg width="17" height="16" viewBox="0 0 17 16" fill="none" xmlns="http://www.w3.org/2000/svg">
<path d="M11.45 11.8928C10.7468 12.2908 9.96993 12.5417 9.16671 12.6301V15.3335H7.83338V12.6301C6.4808 12.4785 5.2199 11.8717 4.25749 10.9093C3.29509 9.94693 2.68832 8.68603 2.53671 7.33345H3.88004C3.98398 8.05306 4.25457 8.73844 4.67025 9.33497C5.08594 9.9315 5.63522 10.4227 6.27432 10.7694C6.91343 11.116 7.62468 11.3086 8.35138 11.3318C9.07809 11.355 9.80016 11.2081 10.46 10.9028L9.42604 9.86945C8.9295 10.013 8.40638 10.0392 7.89799 9.94583C7.38961 9.85248 6.9099 9.64217 6.49678 9.33153C6.08365 9.0209 5.74842 8.61844 5.51759 8.15596C5.28675 7.69349 5.16663 7.18367 5.16671 6.66678V5.60945L1.42871 1.87212L2.37204 0.928784L15.5714 14.1288L14.628 15.0715L11.45 11.8928ZM13.4167 10.1068L12.4547 9.14545C12.794 8.60545 13.0254 7.99212 13.1194 7.33345H14.4634C14.3533 8.33122 13.9933 9.2851 13.4167 10.1068ZM11.4767 8.16745L5.62338 2.31412C5.9933 1.6822 6.56101 1.18967 7.23881 0.912616C7.9166 0.63556 8.66677 0.589393 9.37342 0.781248C10.0801 0.973102 10.7039 1.3923 11.1485 1.97409C11.5931 2.55588 11.8338 3.26788 11.8334 4.00012L11.834 6.66678C11.8348 7.18802 11.7129 7.70211 11.478 8.16745H11.4767Z" fill="#1DAC92"/>
</svg>
